<?xml version="1.0" encoding="UTF-8"?>
<svg xmlns="http://www.w3.org/2000/svg" xmlns:xlink="http://www.w3.org/1999/xlink" viewBox="0 0 24 24" width="24px" height="24px">
<g id="surface42712143">
<path style=" stroke:none;fill-rule:nonzero;fill:rgb(27.450982%,27.450982%,27.450982%);fill-opacity:1;" d="M 5.761719 11.234375 L 5.761719 4.988281 L 5.703125 4.945312 L 5.699219 4.945312 L 4.386719 3.972656 C 3.585938 3.378906 2.441406 3.40625 1.734375 4.109375 C 1.257812 4.578125 0.960938 5.230469 0.960938 5.957031 L 0.960938 7.6875 Z M 18.238281 11.226562 L 18.238281 11.234375 L 23.039062 7.6875 L 23.039062 5.957031 C 23.039062 5.242188 22.753906 4.589844 22.28125 4.117188 C 21.582031 3.417969 20.472656 3.335938 19.679688 3.925781 L 18.296875 4.945312 L 18.238281 4.988281 Z M 6.71875 11.9375 L 11.714844 15.628906 C 11.882812 15.753906 12.117188 15.753906 12.285156 15.628906 L 17.28125 11.9375 L 17.28125 5.695312 L 12 9.601562 L 6.71875 5.695312 Z M 18.238281 12.425781 L 18.238281 19.679688 C 18.238281 19.945312 18.453125 20.160156 18.71875 20.160156 L 21.839844 20.160156 C 22.503906 20.160156 23.039062 19.621094 23.039062 18.960938 L 23.039062 8.878906 Z M 5.761719 12.425781 L 0.960938 8.878906 L 0.960938 18.960938 C 0.960938 19.621094 1.496094 20.160156 2.160156 20.160156 L 5.28125 20.160156 C 5.546875 20.160156 5.761719 19.945312 5.761719 19.679688 Z M 5.761719 12.425781 "/>
</g>
</svg>
